<svg id="Слой_1" data-name="Слой 1" xmlns="http://www.w3.org/2000/svg" viewBox="0 0 1000 250"><defs><style>.cls-1{fill:#fff;}</style></defs><path class="cls-1" d="M50.92,255H19.34V144.77H5V117.64H43.49l2.08,8.14c7.3-7.14,17.71-10.76,31-10.76A50,50,0,0,1,94,118a34.88,34.88,0,0,1,14,9.39,43.17,43.17,0,0,1,8.81,15.76,71.86,71.86,0,0,1,3,22.11,70.7,70.7,0,0,1-3.42,22.61,49.19,49.19,0,0,1-10,17.5,43.66,43.66,0,0,1-16.14,11.13,57,57,0,0,1-21.36,3.8,84.39,84.39,0,0,1-12.16-.88,45.15,45.15,0,0,1-5.69-1.19Zm-24.85-6.58H44.19V208.1l4.87,2.37a29.46,29.46,0,0,0,8.55,2.4,77.77,77.77,0,0,0,11.16.8,50.16,50.16,0,0,0,18.79-3.3A37,37,0,0,0,101.24,201a42.61,42.61,0,0,0,8.69-15.19A64.48,64.48,0,0,0,113,165.21a65.48,65.48,0,0,0-2.71-20.11,36.81,36.81,0,0,0-7.43-13.4,28.41,28.41,0,0,0-11.29-7.6,43.26,43.26,0,0,0-15-2.5c-13.75,0-23.35,4.06-29.36,12.43l-1,1.4H41.1l-2.86-11.21H11.73v14H26.07ZM65.52,199.7a47.25,47.25,0,0,1-11-1.31,23.59,23.59,0,0,1-9-3.88l-1.28-1v-41l.15-.49a21.76,21.76,0,0,1,9.79-12.47,29.19,29.19,0,0,1,15-4,23.37,23.37,0,0,1,18,7.82c4.63,5.1,7,12.24,7,21.25A50.66,50.66,0,0,1,92.05,180a30.68,30.68,0,0,1-6,11.07,23.82,23.82,0,0,1-9.35,6.61A30.87,30.87,0,0,1,65.52,199.7Zm-14.6-9.54A21,21,0,0,0,56.1,192c6.15,1.48,12.79,1.64,18.13-.42a17,17,0,0,0,6.71-4.78,24.4,24.4,0,0,0,4.69-8.74,44.73,44.73,0,0,0,1.76-13.41c0-7.35-1.77-13-5.27-16.88a16.62,16.62,0,0,0-13-5.62,22.12,22.12,0,0,0-11.55,3.08,15,15,0,0,0-6.69,8.36Z" transform="translate(-5 -5)"/><path class="cls-1" d="M163.78,255a33.63,33.63,0,0,1-9.26-1.25,48.22,48.22,0,0,1-7.72-2.92,44,44,0,0,1-6.23-3.66,36.78,36.78,0,0,1-4.4-3.6l-2.07-2,16.71-21.68,2.72,2.24a29.75,29.75,0,0,0,5.33,3.44,10.92,10.92,0,0,0,4.92,1.39,7.92,7.92,0,0,0,6.5-2.74,28.76,28.76,0,0,0,4.18-7.5h-11l-42.57-100h34.27l27.72,67.08h2.42l18.55-67.08h32.77l-28.52,88.54c-2.44,7-4.84,13.53-7.14,19.35a72.77,72.77,0,0,1-8.42,15.75,36.73,36.73,0,0,1-11.88,10.77C176,253.69,170.33,255,163.78,255Zm-20.67-14.2c.44.34.92.7,1.44,1.06a36.22,36.22,0,0,0,5.25,3.08,40.59,40.59,0,0,0,6.61,2.5,27,27,0,0,0,7.37,1c5.37,0,9.93-1,13.53-3a30.11,30.11,0,0,0,9.72-8.85,66.26,66.26,0,0,0,7.64-14.33c2.27-5.74,4.64-12.14,7-19l25.74-79.92H209l-18.55,67.07H178.33l-27.71-67.07H131l37,86.84h16l-1.47,4.33c-2.2,6.43-4.49,11-7,14a14.62,14.62,0,0,1-11.67,5.1,17.65,17.65,0,0,1-8.07-2.15,42.44,42.44,0,0,1-3.68-2.14Z" transform="translate(-5 -5)"/><path class="cls-1" d="M317.92,25.06a200.7,200.7,0,0,1,35.86,3.22,107.35,107.35,0,0,1,23.49,6.65V85.44H356.93V51.89h-6.66l0,0-.19,0a129.47,129.47,0,0,0-32.11-4.16c-11.26,0-20.42,2.33-27.24,6.93-7.49,5.06-11.45,12.29-11.45,20.91A26.77,26.77,0,0,0,289.6,97a94.22,94.22,0,0,0,21,12.41c7.83,3.48,16.49,7,25.74,10.44a128.43,128.43,0,0,1,24.07,11.89A63,63,0,0,1,378,148.52c4.43,6.29,6.68,14.47,6.68,24.32s-1.85,18.4-5.48,25.59a51.6,51.6,0,0,1-15.34,18.21,70.47,70.47,0,0,1-23.95,11.26,119.74,119.74,0,0,1-31,3.84,117.62,117.62,0,0,1-20.56-1.7,140.24,140.24,0,0,1-17.67-4.32,120.77,120.77,0,0,1-14.19-5.43c-2.46-1.14-4.67-2.19-6.61-3.15V171.67h20.34V194.9l.05,4.82,4.66,1.54,1.55.5A101.92,101.92,0,0,0,293,207a87.55,87.55,0,0,0,19.68,2.14c13,0,23.36-2.71,30.92-8.07,8.12-5.77,12.41-14,12.41-23.7a27.08,27.08,0,0,0-10.38-21.79,87.12,87.12,0,0,0-21.15-12.17c-7.8-3.26-16.46-6.56-25.73-9.82a115.63,115.63,0,0,1-23.93-11.54,62.68,62.68,0,0,1-17.59-16.79C252.79,99,250.54,90.5,250.54,80a50,50,0,0,1,18.18-39.36,64.52,64.52,0,0,1,21.1-11.44,89,89,0,0,1,28.1-4.18m0-6.68a95.64,95.64,0,0,0-30.31,4.53A71,71,0,0,0,264.26,35.6,56.65,56.65,0,0,0,243.7,80q0,17.83,7.89,29a69.17,69.17,0,0,0,19.48,18.59,122.17,122.17,0,0,0,25.36,12.24q13.76,4.83,25.36,9.67a79.85,79.85,0,0,1,19.48,11.19,20.3,20.3,0,0,1,7.89,16.62q0,11.49-9.59,18.29t-26.9,6.79a79.65,79.65,0,0,1-18.1-2,93.82,93.82,0,0,1-15.62-5l-1.85-.6V165h-34V221.2c2.68,1.41,6.19,3.13,10.52,5.13a128.62,128.62,0,0,0,15,5.75,147.08,147.08,0,0,0,18.56,4.53,122.85,122.85,0,0,0,21.8,1.81,125.81,125.81,0,0,0,32.79-4.07A76.81,76.81,0,0,0,368,222a58,58,0,0,0,17.33-20.55q6.18-12.24,6.18-28.56,0-16.93-7.89-28.12a69.17,69.17,0,0,0-19.48-18.59,134.88,134.88,0,0,0-25.36-12.54q-13.77-5.13-25.36-10.28A87.17,87.17,0,0,1,294,91.83a20,20,0,0,1-7.89-16.33q0-9.66,8.5-15.41t23.35-5.74a122.4,122.4,0,0,1,30.31,3.93,6,6,0,0,0,1.86.3V92.13h34V30.77Q373.28,25,355,21.7a207.31,207.31,0,0,0-37.12-3.32Z" transform="translate(-5 -5)"/><path class="cls-1" d="M256.77,151.6h34v29.92l1.85.61a93.52,93.52,0,0,0,15.62,5,79.61,79.61,0,0,0,18.09,2q17.32,0,26.91-6.8T362.85,164A20.3,20.3,0,0,0,355,147.37a80.36,80.36,0,0,0-19.48-11.19q-11.61-4.83-25.36-9.67a121.67,121.67,0,0,1-25.36-12.24,69.06,69.06,0,0,1-19.49-18.59q-7.87-11.18-7.88-29A56.65,56.65,0,0,1,278,22.23,71,71,0,0,1,301.3,9.53,95.6,95.6,0,0,1,331.61,5a206.29,206.29,0,0,1,37.11,3.33Q387,11.65,397.8,17.39V78.75h-34V45.2a6,6,0,0,1-1.86-.3A118.77,118.77,0,0,0,347.23,42,116.69,116.69,0,0,0,331.61,41q-14.85,0-23.35,5.74t-8.5,15.42a20,20,0,0,0,7.88,16.32,87.87,87.87,0,0,0,19.49,11.49q11.6,5.13,25.36,10.27a134.31,134.31,0,0,1,25.36,12.55,69.16,69.16,0,0,1,19.48,18.59q7.89,11.19,7.89,28.11,0,16.32-6.19,28.56a58,58,0,0,1-17.32,20.56A76.89,76.89,0,0,1,355.43,221a125.86,125.86,0,0,1-32.79,4.08,123.71,123.71,0,0,1-21.8-1.81,147,147,0,0,1-18.56-4.54,127.12,127.12,0,0,1-15-5.74q-6.5-3-10.51-5.14Z" transform="translate(-5 -5)"/><path class="cls-1" d="M504.57,81.53l18.35,52.38h1.22l2.2-20.57,10-60.51H565L540.29,172.41h-32l-13.71-47.35h-1.22l-15.42,47.35h-33L419.16,52.83H451l12,66.25,1.95,14.83h1.23l18.1-52.38Z" transform="translate(-5 -5)"/><path class="cls-1" d="M574.06,112.62a72.17,72.17,0,0,1,4.65-26.78A54.87,54.87,0,0,1,591.92,66a56.73,56.73,0,0,1,20.43-12.31,79.52,79.52,0,0,1,26.55-4.19A78,78,0,0,1,666.43,54a57,57,0,0,1,20.44,12.79,53.75,53.75,0,0,1,12.6,20,74.9,74.9,0,0,1,4.28,25.83,72.19,72.19,0,0,1-4.65,26.79,54.71,54.71,0,0,1-13.21,19.84,56.34,56.34,0,0,1-20.43,12.32,79.54,79.54,0,0,1-26.56,4.19,78.26,78.26,0,0,1-27.53-4.54,57.07,57.07,0,0,1-20.43-12.8,53.63,53.63,0,0,1-12.6-20A74.85,74.85,0,0,1,574.06,112.62Zm32.79,0a46.4,46.4,0,0,0,2.2,14.59,35.75,35.75,0,0,0,6.36,11.72,28.55,28.55,0,0,0,10,7.77,31.41,31.41,0,0,0,13.45,2.75q14.19,0,23.13-8.85t8.93-28q0-16.5-8.32-26.67T638.9,75.79a38.81,38.81,0,0,0-12.72,2A25,25,0,0,0,616,84.4a31.8,31.8,0,0,0-6.73,11.48A50.32,50.32,0,0,0,606.85,112.62Z" transform="translate(-5 -5)"/><path class="cls-1" d="M721.86,146.1H752.2v-67H721.86V52.83h55.06l3.67,15.78h1a64.32,64.32,0,0,1,15.67-13.15,39.37,39.37,0,0,1,20.55-5.26q14.69,0,23.12,10.52t8.45,35.16H820.72q0-8.61-2.57-12.56T810,79.38q-9.8,0-15.78,4.78a48.57,48.57,0,0,0-10.16,11V146.1h53.1v26.31H721.86Z" transform="translate(-5 -5)"/><path class="cls-1" d="M934,5h51.15V108.32a316.26,316.26,0,0,0,2,35.39,11.35,11.35,0,0,0,.25,2.39H1003v26.31h-39.4l-3.18-15.31h-1a27,27,0,0,1-6.6,7.66,50.08,50.08,0,0,1-9.3,5.86,49.4,49.4,0,0,1-11.26,3.82,57.9,57.9,0,0,1-12.24,1.32,64.54,64.54,0,0,1-21.65-3.59,47.1,47.1,0,0,1-17.74-11.12,52.91,52.91,0,0,1-12-19.13q-4.41-11.59-4.41-27.38A73.16,73.16,0,0,1,869,87.27,56.62,56.62,0,0,1,902.2,54.38,69.87,69.87,0,0,1,927.41,50a115.75,115.75,0,0,1,14.31.84,48.77,48.77,0,0,1,11.62,2.75V31.31H934Zm-6.6,144.45A31,31,0,0,0,943.92,145a20.61,20.61,0,0,0,9.42-12.8V81.53a23.78,23.78,0,0,0-9.42-4,59.15,59.15,0,0,0-12.6-1.31,39.29,39.29,0,0,0-12.85,2.15,29.25,29.25,0,0,0-11,6.82,32.84,32.84,0,0,0-7.58,12.07q-2.82,7.43-2.82,18.18,0,15.32,7.83,24.63T927.41,149.45Z" transform="translate(-5 -5)"/><path class="cls-1" d="M441.91,238.08V211.49c0-1.11,0-2.19-.12-3.23a10.44,10.44,0,0,0-.57-2.79,4.49,4.49,0,0,0-1.31-2,3.37,3.37,0,0,0-2.24-.72A6,6,0,0,0,433,205a14.75,14.75,0,0,0-2.9,5.59v27.46h-6.21V198.16h4.25l1.22,4.87h.33c.54-.8,1.08-1.55,1.59-2.27a9.19,9.19,0,0,1,1.8-1.88,7.73,7.73,0,0,1,2.41-1.24,11.92,11.92,0,0,1,3.51-.44,9.48,9.48,0,0,1,2.53.36,8,8,0,0,1,2.41,1.12,7,7,0,0,1,1.92,2,7.44,7.44,0,0,1,1.06,3.11A17.19,17.19,0,0,1,451.1,199a10.43,10.43,0,0,1,6.41-1.76,9.45,9.45,0,0,1,4.37.88,6.42,6.42,0,0,1,2.62,2.52,11.47,11.47,0,0,1,1.3,3.91,31.41,31.41,0,0,1,.37,5.07v28.5H460V210.94a28.66,28.66,0,0,0-.16-3.16,9.85,9.85,0,0,0-.61-2.59,4.29,4.29,0,0,0-1.23-1.76,3.21,3.21,0,0,0-2.08-.64,6.17,6.17,0,0,0-4.82,2.24,14.62,14.62,0,0,0-2.94,6.39v26.66Z" transform="translate(-5 -5)"/><path class="cls-1" d="M519.18,201.28a26.44,26.44,0,0,1,7.92-2.88,44.73,44.73,0,0,1,8.66-.88,15.78,15.78,0,0,1,6.82,1.28,11.08,11.08,0,0,1,4.17,3.31,11.79,11.79,0,0,1,2,4.64,26.19,26.19,0,0,1,.53,5.22c0,2-.06,4.18-.17,6.47s-.19,4.58-.24,6.86a55.65,55.65,0,0,0,.49,7.59h5.47v5.19H544.09l-.73-6H543a20.79,20.79,0,0,1-1.48,1.84,13.92,13.92,0,0,1-2.58,2.19,16.2,16.2,0,0,1-9.3,2.68q-6.06,0-9.58-3a10.38,10.38,0,0,1-3.53-8.3,11.83,11.83,0,0,1,1.85-6.79,11.66,11.66,0,0,1,5.28-4.15,24.78,24.78,0,0,1,8.32-1.67,57,57,0,0,1,10.94.64,27.85,27.85,0,0,0,.12-6.11,8.26,8.26,0,0,0-1.31-3.87,5.51,5.51,0,0,0-2.87-2,14.89,14.89,0,0,0-4.55-.6,24.82,24.82,0,0,0-7,1c-2.24.67-4.23,1.34-6,2Zm12.09,32.17a12.18,12.18,0,0,0,4.24-.72,13,13,0,0,0,3.44-1.84,12.27,12.27,0,0,0,2.45-2.43,12,12,0,0,0,1.47-2.52v-5.59a48.31,48.31,0,0,0-7.85-.71,22.63,22.63,0,0,0-6.2.75,8.68,8.68,0,0,0-4.09,2.36,5.88,5.88,0,0,0-1.47,4.15,6.5,6.5,0,0,0,1.84,4.59C526.33,232.8,528.38,233.45,531.27,233.45Z" transform="translate(-5 -5)"/><path class="cls-1" d="M607.8,212.13c0-.48,0-1.1,0-1.87s-.07-1.57-.12-2.4-.13-1.64-.21-2.43-.18-1.49-.28-2.08h-5.48v-5.19h11l.73,6.47h.41a13.61,13.61,0,0,1,2.17-2.67,16.86,16.86,0,0,1,11.8-4.76,25.33,25.33,0,0,1,6.66.8,10.22,10.22,0,0,1,4.81,2.84,13.08,13.08,0,0,1,2.91,5.5,33.38,33.38,0,0,1,1,8.83v22.91h-6.46V216.41q0-6.6-2.2-9.95t-8-3.35a10.49,10.49,0,0,0-4.11.84,14.27,14.27,0,0,0-3.62,2.19,14.79,14.79,0,0,0-2.85,3.15,12.83,12.83,0,0,0-1.79,3.78v25H607.8Z" transform="translate(-5 -5)"/><path class="cls-1" d="M698.87,201.28a26.5,26.5,0,0,1,7.93-2.88,44.55,44.55,0,0,1,8.65-.88,15.78,15.78,0,0,1,6.82,1.28,11.08,11.08,0,0,1,4.17,3.31,11.51,11.51,0,0,1,2,4.64A26.19,26.19,0,0,1,729,212c0,2,0,4.18-.16,6.47s-.19,4.58-.25,6.86a57.29,57.29,0,0,0,.49,7.59h5.48v5.19H723.78l-.73-6h-.41a20.79,20.79,0,0,1-1.48,1.84,13.29,13.29,0,0,1-2.58,2.19,16.2,16.2,0,0,1-9.3,2.68q-6.06,0-9.58-3a10.37,10.37,0,0,1-3.52-8.3,11.83,11.83,0,0,1,1.84-6.79,11.64,11.64,0,0,1,5.29-4.15,24.67,24.67,0,0,1,8.31-1.67,56.92,56.92,0,0,1,10.94.64,27.85,27.85,0,0,0,.12-6.11,8.26,8.26,0,0,0-1.31-3.87,5.47,5.47,0,0,0-2.87-2,14.84,14.84,0,0,0-4.55-.6,24.7,24.7,0,0,0-7,1c-2.25.67-4.24,1.34-6,2ZM711,233.45a12.23,12.23,0,0,0,4.25-.72,12.88,12.88,0,0,0,3.43-1.84,12.22,12.22,0,0,0,3.92-4.95v-5.59a48.2,48.2,0,0,0-7.84-.71,22.65,22.65,0,0,0-6.21.75,8.69,8.69,0,0,0-4.08,2.36A5.88,5.88,0,0,0,703,226.9a6.49,6.49,0,0,0,1.83,4.59C706,232.8,708.07,233.45,711,233.45Z" transform="translate(-5 -5)"/><path class="cls-1" d="M822.7,240.07a14.13,14.13,0,0,1-1.47,6.59,13,13,0,0,1-4.05,4.67,18.37,18.37,0,0,1-6,2.75,28.8,28.8,0,0,1-7.43.92,32.85,32.85,0,0,1-8.42-1,25.45,25.45,0,0,1-6.2-2.47l3.09-5.67a9.42,9.42,0,0,0,1.91,1.24,21.1,21.1,0,0,0,2.73,1.12,24.11,24.11,0,0,0,3.3.83,19.54,19.54,0,0,0,3.46.32,23.6,23.6,0,0,0,6-.64,8.89,8.89,0,0,0,3.86-2,7.71,7.71,0,0,0,2.12-3.51,18.63,18.63,0,0,0,.65-5.27v-4.47h-.32a12.66,12.66,0,0,1-4.81,4.07,17.22,17.22,0,0,1-7.58,1.43q-9.28,0-13.64-5.06t-4.36-15.77q0-10.22,5.56-15.45t16.5-5.23a46.92,46.92,0,0,1,8.61.68,44.73,44.73,0,0,1,6.5,1.72Zm-18.22-6.38a11.32,11.32,0,0,0,7.79-2.52c1.89-1.68,3.22-4.24,4-7.7V204.55c-2.38-1.12-5.7-1.68-10-1.68s-7.73,1.25-10.22,3.76-3.73,6.33-3.73,11.49a28.28,28.28,0,0,0,.65,6.27A14.16,14.16,0,0,0,795,229.3a9.74,9.74,0,0,0,3.73,3.23A12.72,12.72,0,0,0,804.48,233.69Z" transform="translate(-5 -5)"/><path class="cls-1" d="M913,233.05a20.49,20.49,0,0,1-3.47,2.39,25.53,25.53,0,0,1-4.37,1.92,34,34,0,0,1-4.94,1.24A31.16,31.16,0,0,1,895,239a23.67,23.67,0,0,1-8.66-1.47,16.88,16.88,0,0,1-6.29-4.23,18.14,18.14,0,0,1-3.83-6.59,26.36,26.36,0,0,1-1.31-8.62,25.8,25.8,0,0,1,1.43-8.94,17.36,17.36,0,0,1,4.12-6.55,18.13,18.13,0,0,1,6.54-4,24.89,24.89,0,0,1,8.57-1.4,26.84,26.84,0,0,1,6.78.88,13.44,13.44,0,0,1,5.92,3.32,15.61,15.61,0,0,1,4,6.7,30.3,30.3,0,0,1,1,11.06H881.67q0,7.18,4,10.74t10.55,3.55a19,19,0,0,0,4.36-.52,37.94,37.94,0,0,0,4.11-1.24,21.46,21.46,0,0,0,3.46-1.6,14.84,14.84,0,0,0,2.33-1.59Zm-17.2-30.58a22.62,22.62,0,0,0-5.09.56,11.79,11.79,0,0,0-4.23,1.88,10.33,10.33,0,0,0-3,3.43,13.55,13.55,0,0,0-1.51,5.23h25.32a12.11,12.11,0,0,0-3.46-8.18A11.1,11.1,0,0,0,895.75,202.47Z" transform="translate(-5 -5)"/><path class="cls-1" d="M965,238.08v-5.35h11V203.51H965v-5.35h15.27l1.31,5.19H982a29.51,29.51,0,0,1,6.2-4.23,17.74,17.74,0,0,1,8.17-1.76,8.37,8.37,0,0,1,4.45,1,7,7,0,0,1,2.62,3,15.47,15.47,0,0,1,1.26,4.83,56,56,0,0,1,.33,6.42l-5.72.08a20.07,20.07,0,0,0-1-7.44,3.72,3.72,0,0,0-3.71-2.38,13.71,13.71,0,0,0-4.58.72,15.26,15.26,0,0,0-3.55,1.75,18.65,18.65,0,0,0-2.57,2.07,13.14,13.14,0,0,0-1.56,1.75v23.49H998v5.35Z" transform="translate(-5 -5)"/></svg>