<svg id="Layer_1" data-name="Layer 1" xmlns="http://www.w3.org/2000/svg" viewBox="0 0 545.4 1131.13"><defs><style>.cls-1{fill:#1e99d5;}.cls-2{fill:#fff;}</style></defs><path class="cls-1" d="M272.7,371.07C122.09,371.07,0,493.16,0,643.77S122.09,916.46,272.7,916.46,545.4,794.37,545.4,643.77,423.3,371.07,272.7,371.07Zm0,513C140,884,32.44,776.46,32.44,643.77S140,403.51,272.7,403.51,513,511.08,513,643.77,405.39,884,272.7,884Z"/><path class="cls-1" d="M239.62,285.87l-3.84,73.86a291.19,291.19,0,0,1,73.84,0l-3.85-73.86c72.62-31.9,134.6,10.87,134.6,10.87-16.08-23.8-46.74-62.6-93.06-67.11-14.62-1.42-32.64,1.05-47.31,4v-6l-17.08-4.31L300,219V202.37l-17.08-4.31L300,193.75V177.16l-17.08-4.31L300,168.53V151.94l-17.08-4.3L300,143.32V126.73l-17.08-4.31L300,118.11V101.52l-17.08-4.31L300,92.9V88.82a48.61,48.61,0,1,0-54.6,0V233.59c-14.68-2.91-32.69-5.38-47.32-4-46.31,4.51-77,43.31-93.05,67.11C105,296.74,167,254,239.62,285.87Z"/><path class="cls-1" d="M318.72,926.48,320.51,970l-47.81,97.94V930.16a288.28,288.28,0,0,1-66.24-7.68l-2.84,54.41,69.08,154.24,69.07-154.24-2.83-54.41Q328.93,924.83,318.72,926.48Z"/><path class="cls-1" d="M272.7,434.92c-115.35,0-208.85,93.5-208.85,208.85s93.5,208.85,208.85,208.85,208.85-93.51,208.85-208.85S388,434.92,272.7,434.92Zm-20.88,24.39c-1.37,0-2.73,0-4.09.05a187,187,0,0,1,25-1.67c102.77,0,186.08,83.31,186.08,186.08a188.53,188.53,0,0,1-1.67,25c0-1.36.05-2.72.05-4.08C457.16,551.24,365.22,459.31,251.82,459.31Z"/><path class="cls-2" d="M198.47,680.34h34v29.92l1.86.61a93.22,93.22,0,0,0,15.62,5,80.13,80.13,0,0,0,18.09,2q17.32,0,26.91-6.8t9.58-18.29a20.32,20.32,0,0,0-7.88-16.62,79.91,79.91,0,0,0-19.49-11.18q-11.6-4.84-25.36-9.68A122.15,122.15,0,0,1,226.46,643,69,69,0,0,1,207,624.42q-7.89-11.17-7.89-29A56.62,56.62,0,0,1,219.66,551,70.56,70.56,0,0,1,243,538.28a95.26,95.26,0,0,1,30.31-4.54,206.37,206.37,0,0,1,37.11,3.33q18.24,3.33,29.07,9.07V607.5h-34V573.94a5.64,5.64,0,0,1-1.85-.3,122.4,122.4,0,0,0-30.31-3.93q-14.85,0-23.35,5.74t-8.51,15.42a20,20,0,0,0,7.89,16.32,87.41,87.41,0,0,0,19.48,11.49q11.61,5.15,25.36,10.28a134,134,0,0,1,25.36,12.54A69.2,69.2,0,0,1,339,660.09q7.89,11.19,7.88,28.11,0,16.32-6.18,28.56a58,58,0,0,1-17.32,20.56,76.85,76.85,0,0,1-26.29,12.39,125.73,125.73,0,0,1-32.78,4.08,122.69,122.69,0,0,1-21.8-1.81A146.66,146.66,0,0,1,224,747.45a128.82,128.82,0,0,1-15-5.75q-6.5-3-10.52-5.14Z"/></svg>